<svg width="360" height="242" viewBox="0 0 360 242" fill="none" xmlns="http://www.w3.org/2000/svg">
<g opacity="0.95">
<path opacity="0.1" d="M-0.425847 37.5244C-0.425847 37.5244 46.9625 126.522 118.904 145.675C190.846 164.829 236.343 148.219 293.642 163.474C350.941 178.729 366.628 228.658 416.128 241.837L507 -99.6087L67.2306 -216.69L-0.425847 37.5244Z" fill="#B9202B"/>
<path opacity="0.2" d="M-7.42288 101.939C-7.42288 101.939 71.0105 147.257 137.04 128.72C203.069 110.183 231.688 76.8278 284.278 62.064C336.868 47.3002 372.195 77.7174 417.627 64.9631L333.773 -233.837L-70 -120.484L-7.56897 101.98L-7.42288 101.939Z" fill="#B9202B"/>
<path opacity="0.3" d="M366.1 32.6645C366.1 32.6645 311.028 91.849 251.334 91.849C191.639 91.849 159.811 69.5933 112.266 69.5933C64.722 69.5933 42.2706 105.045 1.19757 105.045V-178.272H366.1V32.6645Z" fill="#B9202B"/>
</g>
</svg>
