<svg width="147" height="14" viewBox="0 0 147 14" fill="none" xmlns="http://www.w3.org/2000/svg">
<rect opacity="0.3" x="0.348145" y="0.80304" width="146.652" height="12.6424" rx="5" fill="#FFCD03"/>
<rect x="11" y="1" width="125.16" height="12.6424" rx="5" fill="#FFC107"/>
<path d="M57.187 10.054C56.797 10.054 56.422 10.003 56.062 9.901C55.702 9.793 55.42 9.658 55.216 9.496L55.576 8.812C55.786 8.962 56.041 9.082 56.341 9.172C56.641 9.262 56.944 9.307 57.25 9.307C58.006 9.307 58.384 9.091 58.384 8.659C58.384 8.515 58.333 8.401 58.231 8.317C58.129 8.233 58 8.173 57.844 8.137C57.694 8.095 57.478 8.05 57.196 8.002C56.812 7.942 56.497 7.873 56.251 7.795C56.011 7.717 55.804 7.585 55.63 7.399C55.456 7.213 55.369 6.952 55.369 6.616C55.369 6.184 55.549 5.839 55.909 5.581C56.269 5.317 56.752 5.185 57.358 5.185C57.676 5.185 57.994 5.224 58.312 5.302C58.63 5.38 58.891 5.485 59.095 5.617L58.726 6.301C58.336 6.049 57.877 5.923 57.349 5.923C56.983 5.923 56.704 5.983 56.512 6.103C56.32 6.223 56.224 6.382 56.224 6.58C56.224 6.736 56.278 6.859 56.386 6.949C56.494 7.039 56.626 7.105 56.782 7.147C56.944 7.189 57.169 7.237 57.457 7.291C57.841 7.357 58.15 7.429 58.384 7.507C58.624 7.579 58.828 7.705 58.996 7.885C59.164 8.065 59.248 8.317 59.248 8.641C59.248 9.073 59.062 9.418 58.69 9.676C58.324 9.928 57.823 10.054 57.187 10.054ZM62.3708 10.054C61.8968 10.054 61.4708 9.949 61.0928 9.739C60.7148 9.529 60.4178 9.241 60.2018 8.875C59.9918 8.503 59.8868 8.083 59.8868 7.615C59.8868 7.147 59.9918 6.73 60.2018 6.364C60.4178 5.992 60.7148 5.704 61.0928 5.5C61.4708 5.29 61.8968 5.185 62.3708 5.185C62.8448 5.185 63.2678 5.29 63.6398 5.5C64.0178 5.704 64.3118 5.992 64.5218 6.364C64.7378 6.73 64.8458 7.147 64.8458 7.615C64.8458 8.083 64.7378 8.503 64.5218 8.875C64.3118 9.241 64.0178 9.529 63.6398 9.739C63.2678 9.949 62.8448 10.054 62.3708 10.054ZM62.3708 9.298C62.6768 9.298 62.9498 9.229 63.1898 9.091C63.4358 8.947 63.6278 8.749 63.7658 8.497C63.9038 8.239 63.9728 7.945 63.9728 7.615C63.9728 7.285 63.9038 6.994 63.7658 6.742C63.6278 6.484 63.4358 6.286 63.1898 6.148C62.9498 6.01 62.6768 5.941 62.3708 5.941C62.0648 5.941 61.7888 6.01 61.5428 6.148C61.3028 6.286 61.1108 6.484 60.9668 6.742C60.8288 6.994 60.7598 7.285 60.7598 7.615C60.7598 7.945 60.8288 8.239 60.9668 8.497C61.1108 8.749 61.3028 8.947 61.5428 9.091C61.7888 9.229 62.0648 9.298 62.3708 9.298ZM66.0407 3.322H66.9047V10H66.0407V3.322ZM73.0544 3.322V10H72.2264V9.244C72.0344 9.508 71.7914 9.709 71.4974 9.847C71.2034 9.985 70.8794 10.054 70.5254 10.054C70.0634 10.054 69.6494 9.952 69.2834 9.748C68.9174 9.544 68.6294 9.259 68.4194 8.893C68.2154 8.521 68.1134 8.095 68.1134 7.615C68.1134 7.135 68.2154 6.712 68.4194 6.346C68.6294 5.98 68.9174 5.695 69.2834 5.491C69.6494 5.287 70.0634 5.185 70.5254 5.185C70.8674 5.185 71.1824 5.251 71.4704 5.383C71.7584 5.509 71.9984 5.698 72.1904 5.95V3.322H73.0544ZM70.5974 9.298C70.8974 9.298 71.1704 9.229 71.4164 9.091C71.6624 8.947 71.8544 8.749 71.9924 8.497C72.1304 8.239 72.1994 7.945 72.1994 7.615C72.1994 7.285 72.1304 6.994 71.9924 6.742C71.8544 6.484 71.6624 6.286 71.4164 6.148C71.1704 6.01 70.8974 5.941 70.5974 5.941C70.2914 5.941 70.0154 6.01 69.7694 6.148C69.5294 6.286 69.3374 6.484 69.1934 6.742C69.0554 6.994 68.9864 7.285 68.9864 7.615C68.9864 7.945 69.0554 8.239 69.1934 8.497C69.3374 8.749 69.5294 8.947 69.7694 9.091C70.0154 9.229 70.2914 9.298 70.5974 9.298ZM79.1491 10.054C78.6751 10.054 78.2491 9.949 77.8711 9.739C77.4931 9.529 77.1961 9.241 76.9801 8.875C76.7701 8.503 76.6651 8.083 76.6651 7.615C76.6651 7.147 76.7701 6.73 76.9801 6.364C77.1961 5.992 77.4931 5.704 77.8711 5.5C78.2491 5.29 78.6751 5.185 79.1491 5.185C79.6231 5.185 80.0461 5.29 80.4181 5.5C80.7961 5.704 81.0901 5.992 81.3001 6.364C81.5161 6.73 81.6241 7.147 81.6241 7.615C81.6241 8.083 81.5161 8.503 81.3001 8.875C81.0901 9.241 80.7961 9.529 80.4181 9.739C80.0461 9.949 79.6231 10.054 79.1491 10.054ZM79.1491 9.298C79.4551 9.298 79.7281 9.229 79.9681 9.091C80.2141 8.947 80.4061 8.749 80.5441 8.497C80.6821 8.239 80.7511 7.945 80.7511 7.615C80.7511 7.285 80.6821 6.994 80.5441 6.742C80.4061 6.484 80.2141 6.286 79.9681 6.148C79.7281 6.01 79.4551 5.941 79.1491 5.941C78.8431 5.941 78.5671 6.01 78.3211 6.148C78.0811 6.286 77.8891 6.484 77.7451 6.742C77.6071 6.994 77.5381 7.285 77.5381 7.615C77.5381 7.945 77.6071 8.239 77.7451 8.497C77.8891 8.749 78.0811 8.947 78.3211 9.091C78.5671 9.229 78.8431 9.298 79.1491 9.298ZM87.265 5.23V10H86.446V9.28C86.272 9.526 86.041 9.718 85.753 9.856C85.471 9.988 85.162 10.054 84.826 10.054C84.19 10.054 83.689 9.88 83.323 9.532C82.957 9.178 82.774 8.659 82.774 7.975V5.23H83.638V7.876C83.638 8.338 83.749 8.689 83.971 8.929C84.193 9.163 84.511 9.28 84.925 9.28C85.381 9.28 85.741 9.142 86.005 8.866C86.269 8.59 86.401 8.2 86.401 7.696V5.23H87.265ZM91.5918 9.721C91.4658 9.829 91.3098 9.913 91.1238 9.973C90.9378 10.027 90.7458 10.054 90.5478 10.054C90.0678 10.054 89.6958 9.925 89.4318 9.667C89.1678 9.409 89.0358 9.04 89.0358 8.56V5.941H88.2258V5.23H89.0358V4.186H89.8998V5.23H91.2678V5.941H89.8998V8.524C89.8998 8.782 89.9628 8.98 90.0888 9.118C90.2208 9.256 90.4068 9.325 90.6468 9.325C90.9108 9.325 91.1358 9.25 91.3218 9.1L91.5918 9.721Z" fill="#B9202B"/>
</svg>
